<svg width="147" height="17" viewBox="0 0 147 17" fill="none" xmlns="http://www.w3.org/2000/svg">
<path d="M13.8391 5.82654H15.618V16.5724H14.7337C13.6017 16.5724 12.5006 16.3143 11.4271 15.7947C10.3294 15.2683 9.40384 14.5319 8.65717 13.5926V16.5758H7.77287C5.77372 16.5758 4.012 15.867 2.48425 14.4459C0.829195 12.9113 -5.14984e-05 10.981 -5.14984e-05 8.6515V5.82654H1.77888V8.6515C1.77888 10.2171 2.30533 11.5797 3.35479 12.7392C4.32512 13.8025 5.49845 14.4528 6.87824 14.6868V5.82654H8.73975V8.6515C8.73975 10.2171 9.2662 11.5797 10.3157 12.7392C11.286 13.8025 12.4593 14.4528 13.8391 14.6868V5.82654Z" fill="#231F20"/>
<path d="M24.9325 16.5758C23.4116 16.5758 22.111 16.0356 21.0271 14.9517C19.9432 13.8678 19.403 12.5672 19.403 11.0463C19.403 9.52546 19.9432 8.22481 21.0271 7.14094C22.111 6.05706 23.4116 5.51685 24.9325 5.51685C26.4534 5.51685 27.754 6.05706 28.8379 7.14094C29.9218 8.22481 30.462 9.52546 30.462 11.0463V11.9547H24.9325V10.1414H28.5282C28.3218 9.32933 27.8882 8.6618 27.2276 8.13535C26.56 7.6089 25.7962 7.34739 24.9359 7.34739C23.9174 7.34739 23.0469 7.70868 22.3209 8.43471C21.5949 9.16073 21.2336 10.0313 21.2336 11.0498C21.2336 12.0683 21.5949 12.9388 22.3209 13.6648C23.0469 14.3908 23.9174 14.7521 24.9359 14.7521V16.5758H24.9325Z" fill="#231F20"/>
<path d="M39.5734 2.77103C38.5136 2.77792 37.6499 3.14953 36.9824 3.88243C36.3149 4.61534 35.9777 5.56158 35.9777 6.71427V7.94954H37.8048V9.75255H35.9777V16.5758H34.1987V6.71427C34.1987 5.05921 34.7046 3.69318 35.7162 2.61275C36.7278 1.52544 38.0078 0.974899 39.5596 0.968018L39.5734 2.77103Z" fill="#57C8CE"/>
<path d="M40.9601 11.1668C40.9601 9.64247 41.4934 8.34526 42.5601 7.27171C43.6267 6.19128 44.9067 5.65106 46.4035 5.65106V7.30955C45.3541 7.30955 44.4525 7.68461 43.7059 8.43472C42.9661 9.19171 42.5945 10.1035 42.5945 11.1702V16.5793H40.9601V11.1668Z" fill="#57C8CE"/>
<path d="M53.853 16.6102C52.3631 16.6102 51.09 16.07 50.0302 14.9861C48.9704 13.9126 48.4405 12.6085 48.4405 11.0807C48.4405 9.55988 48.9704 8.25923 50.0302 7.17536C51.09 6.09149 52.3631 5.55127 53.853 5.55127C55.3429 5.55127 56.616 6.09149 57.6723 7.17536C58.7321 8.25923 59.262 9.55988 59.262 11.0807V16.4072H57.4693V11.0807C57.4693 10.0622 57.1149 9.19171 56.4061 8.46568C55.6973 7.73966 54.8474 7.37837 53.8495 7.37837C52.8448 7.37837 51.9915 7.73966 51.2827 8.46568C50.5738 9.19171 50.2194 10.0622 50.2194 11.0807C50.2194 12.0992 50.5738 12.9698 51.2827 13.6958C51.9915 14.4218 52.8483 14.7831 53.8495 14.7831V16.6102H53.853Z" fill="#57C8CE"/>
<path d="M77.8806 5.69582C79.3774 5.69582 80.6539 6.23604 81.7137 7.31303C82.7735 8.39346 83.3034 9.69411 83.3034 11.2184V16.5586H81.5004V11.2184C81.5004 10.1965 81.1494 9.32594 80.4509 8.60335C79.7421 7.89109 78.8853 7.53325 77.884 7.53325C76.8896 7.53325 76.0363 7.89109 75.3274 8.60335C74.6186 9.32594 74.2642 10.1965 74.2642 11.2184V16.5586H72.4715V11.2184C72.4715 10.1965 72.1171 9.32594 71.4083 8.60335C70.6995 7.89109 69.8462 7.53325 68.8517 7.53325C67.8573 7.53325 67.004 7.89109 66.2952 8.60335C65.5864 9.32594 65.2319 10.1965 65.2319 11.2184V16.5724H63.4393V5.84034H65.2319V7.1169C66.2676 6.16722 67.472 5.69238 68.8517 5.69238C69.7739 5.69238 70.6444 5.91947 71.4565 6.37367C72.2375 6.81066 72.8741 7.41281 73.3662 8.17325C73.8582 7.40937 74.5016 6.81066 75.2896 6.37367C76.0913 5.92291 76.955 5.69582 77.8806 5.69582Z" fill="#57C8CE"/>
<path d="M92.3873 16.5758C90.8664 16.5758 89.5658 16.0356 88.4819 14.9517C87.398 13.8678 86.8578 12.5672 86.8578 11.0463C86.8578 9.52546 87.398 8.22481 88.4819 7.14094C89.5658 6.05706 90.8664 5.51685 92.3873 5.51685C93.9082 5.51685 95.2088 6.05706 96.2927 7.14094C97.3766 8.22481 97.9168 9.52546 97.9168 11.0463V11.9547H92.3873V10.1414H95.983C95.7765 9.32933 95.343 8.6618 94.6823 8.13535C94.0148 7.6089 93.251 7.34739 92.3907 7.34739C91.3722 7.34739 90.5017 7.70868 89.7757 8.43471C89.0497 9.16073 88.6884 10.0313 88.6884 11.0498C88.6884 12.0683 89.0497 12.9388 89.7757 13.6648C90.5017 14.3908 91.3722 14.7521 92.3907 14.7521V16.5758H92.3873Z" fill="#57C8CE"/>
<path d="M103.374 10.8295C103.374 11.9857 103.711 12.9285 104.389 13.6579C105.067 14.3908 105.941 14.759 107.014 14.7693L107.004 16.5724C105.428 16.5655 104.131 16.0184 103.112 14.9379C102.087 13.8541 101.571 12.4846 101.571 10.8295V0.968018H103.374V5.69577H107.014V7.49879H103.374V10.8295Z" fill="#231F20"/>
<path d="M115.217 16.5758C113.697 16.5758 112.396 16.0356 111.312 14.9517C110.228 13.8678 109.688 12.5672 109.688 11.0463C109.688 9.52546 110.228 8.22481 111.312 7.14094C112.396 6.05706 113.697 5.51685 115.217 5.51685C116.738 5.51685 118.039 6.05706 119.123 7.14094C120.207 8.22481 120.747 9.52546 120.747 11.0463V11.9547H115.217V10.1414H118.813C118.607 9.32933 118.173 8.6618 117.512 8.13535C116.845 7.6089 116.081 7.34739 115.221 7.34739C114.202 7.34739 113.332 7.70868 112.606 8.43471C111.88 9.16073 111.519 10.0313 111.519 11.0498C111.519 12.0683 111.88 12.9388 112.606 13.6648C113.332 14.3908 114.202 14.7521 115.221 14.7521V16.5758H115.217Z" fill="#231F20"/>
<path d="M125.523 14.9517C124.439 13.8781 123.899 12.574 123.899 11.0463C123.899 9.52543 124.439 8.22478 125.523 7.1409C126.596 6.06735 127.9 5.53058 129.428 5.53058C130.55 5.53058 131.579 5.84369 132.508 6.47337L131.493 7.97703C130.873 7.5538 130.182 7.34391 129.428 7.34391C128.41 7.34391 127.539 7.7052 126.813 8.43123C126.087 9.15725 125.726 10.0278 125.726 11.0463C125.726 12.0648 126.087 12.9353 126.813 13.6614C127.539 14.3874 128.41 14.7487 129.428 14.7487C130.216 14.7487 130.932 14.5181 131.579 14.057L132.642 15.5504C131.679 16.2351 130.608 16.5758 129.428 16.5758C127.9 16.5758 126.6 16.0321 125.523 14.9517Z" fill="#231F20"/>
<path d="M141.106 5.70946C142.603 5.70946 143.883 6.24624 144.95 7.31979C146.01 8.40022 146.54 9.70087 146.54 11.2149V16.562H144.737V11.2149C144.737 10.1998 144.382 9.3327 143.673 8.61356C142.965 7.89442 142.108 7.53656 141.106 7.53656C140.105 7.53656 139.245 7.89442 138.526 8.61356C137.817 9.3327 137.463 10.1998 137.463 11.2149V16.5757H135.66V0.978271H137.463V7.12367C138.498 6.18087 139.713 5.70946 141.106 5.70946Z" fill="#231F20"/>
<path d="M59.2655 16.2318H57.4728V16.6102H59.2655V16.2318Z" fill="#5CD2DD"/>
</svg>
