<svg width="72" height="41" viewBox="0 0 72 41" fill="none" xmlns="http://www.w3.org/2000/svg">
<path d="M17.8922 35.9456L17.727 36.121C16.2371 37.7107 14.7369 39.3004 13.247 40.897L8.26809 36.1761C5.78034 33.8225 3.29259 31.4724 0.808285 29.1189C2.37732 27.4913 3.94636 25.8604 5.51883 24.2328C5.85604 24.5563 6.3997 25.0793 7.07755 25.7227C7.57991 26.201 7.95497 26.5554 8.09605 26.6862C9.73046 28.2277 11.3649 29.7761 12.9958 31.3176C14.6303 32.8625 16.2578 34.4041 17.8922 35.9456Z" fill="#231F20"/>
<path d="M41.094 11.481L41.0664 11.512L17.8922 35.9456L17.7305 36.1211L13.2298 40.8695L8.34033 36.2312L12.9958 31.3211L31.6453 11.6565L36.0428 7.01477L41.0389 11.4845L41.094 11.481Z" fill="#231F20"/>
<path d="M42.1812 35.5017L42.016 35.6772C40.5261 37.2669 39.0259 38.8566 37.536 40.4532L29.5739 32.9039L34.2328 27.9938C35.2513 28.9572 36.2698 29.9138 37.2814 30.8772C38.9193 32.4187 40.5468 33.9602 42.1812 35.5017Z" fill="#5CD2DD"/>
<path d="M71.4497 4.63588L66.5611 0L32.6231 35.7876L37.5116 40.4235L71.4497 4.63588Z" fill="#5CD2DD"/>
<path d="M37.2849 30.8773C35.709 32.5151 34.1296 34.153 32.5537 35.7908L27.4302 30.8532L32.127 25.9844C33.8475 27.6119 35.5644 29.2429 37.2849 30.8773Z" fill="#5CD2DD"/>
<path d="M12.5771 7.12175L7.86561 12.009L12.7529 16.7205L17.4643 11.8332L12.5771 7.12175Z" fill="#5CD2DD"/>
</svg>
